# xmcd
#
# Track frame offsets:
#	150
#	9952
#	22730
#	34837
#	48935
#	60185
#	73732
#	86307
#	102767
#	115240
#	127845
#	138820
#	151617
#	161720
#
# Disc length: 2273 seconds
#
# Revision: 0
# Processed by: cddbd v1.5.2PL0 Copyright (c) Steve Scherf et al.
# Submitted via: audiograbber 1.83.01
#
DISCID=9508df0e
DTITLE=Randy Travis - Heroes and Friends
DYEAR=1990
DGENRE=Country
TTITLE0=Heroes And Friends
TTITLE1=Do I Ever Cross Your Mind (Duet with Dolly Parton)
TTITLE2=Birth Of The Blues (Duet with Willie Nelson)
TTITLE3=All Night Long (Duet with Merle Hagggard)
TTITLE4=The Human Race (Duet with Vern Gosdin)
TTITLE5=Shopping For Dresses (Duet with Loretta Lynn)
TTITLE6=Waiting On The Light To Change (Duet with B.B. King)
TTITLE7=A Few Ole Country Boys (Duet with George Jones)
TTITLE8=Walk Our Own Road (Duet with Kris Kristofferson)
TTITLE9=We're Strangers Again (Duet with Tammy Wynette)
TTITLE10=Smokin' The Hive (Duet with Clint Eastwood)
TTITLE11=Come See About Me (Duet with Conway Twitty)
TTITLE12=Happy Trails (Duet with Roy Rogers)
TTITLE13=Heroes And Friends (Reprise)
EXTD=
EXTT0=
EXTT1=
EXTT2=
EXTT3=
EXTT4=
EXTT5=
EXTT6=
EXTT7=
EXTT8=
EXTT9=
EXTT10=
EXTT11=
EXTT12=
EXTT13=
PLAYORDER=
